<svg xmlns="http://www.w3.org/2000/svg" version="1.1" xmlns:xlink="http://www.w3.org/1999/xlink" xmlns:svgjs="http://svgjs.dev/svgjs" width="1000" height="999" viewBox="0 0 1000 999"><g transform="matrix(1,0,0,1,-0.215743440233382,-0.21552769679306039)"><svg viewBox="0 0 343 343" data-background-color="#ffffff" preserveAspectRatio="xMidYMid meet" height="999" width="1000" xmlns="http://www.w3.org/2000/svg" xmlns:xlink="http://www.w3.org/1999/xlink"><defs></defs><g id="tight-bounds" transform="matrix(1,0,0,1,0.0740000000000407,0.07400000000001228)"><svg viewBox="0 0 342.85155851775386 342.85155851775386" height="342.85155851775386" width="342.85155851775386"><g><svg></svg></g><g><svg viewBox="0 0 342.85155851775386 342.85155851775386" height="342.85155851775386" width="342.85155851775386"><g><path d="M0 171.426c0-94.676 76.75-171.426 171.426-171.426 94.676 0 171.426 76.75 171.426 171.426 0 94.676-76.75 171.426-171.426 171.426-94.676 0-171.426-76.75-171.426-171.426zM171.426 340.124c93.169 0 168.698-75.529 168.698-168.698 0-93.169-75.529-168.698-168.698-168.698-93.169 0-168.698 75.529-168.698 168.698 0 93.169 75.529 168.698 168.698 168.698z" data-fill-palette-color="tertiary" fill="#fcf4f1" stroke="transparent"></path><ellipse rx="164.56874808852186" ry="164.56874808852186" cx="171.42577925887693" cy="171.42577925887693" fill="#fcf4f1" stroke="transparent" stroke-width="0" fill-opacity="1" data-fill-palette-color="tertiary"></ellipse></g><g transform="matrix(1,0,0,1,64.84655864529837,137.05629703915105)"><svg viewBox="0 0 213.1584412271571 68.73896443945179" height="68.73896443945179" width="213.1584412271571"><g><svg viewBox="0 0 213.1584412271571 68.73896443945179" height="68.73896443945179" width="213.1584412271571"><g><svg viewBox="0 0 213.1584412271571 68.73896443945179" height="68.73896443945179" width="213.1584412271571"><g transform="matrix(1,0,0,1,0,38.49180683528287)"><svg viewBox="0 0 213.1584412271571 30.24715760416892" height="30.24715760416892" width="213.1584412271571"><g><svg viewBox="0 0 213.1584412271571 30.24715760416892" height="30.24715760416892" width="213.1584412271571"><g><svg viewBox="0 0 213.1584412271571 30.24715760416892" height="30.24715760416892" width="213.1584412271571"><g transform="matrix(1,0,0,1,0,0)"><svg width="213.1584412271571" viewBox="0.25 -35.5 253.6699981689453 36" height="30.24715760416892" data-palette-color="#171717"><path d="M2.8 0.1L2.8 0.1Q2.4 0.1 1.7 0.05 1 0 0.25-0.05L0.25-0.05 9.15-34.45Q9.3-35.15 10.7-35.15L10.7-35.15Q11.2-35.15 11.73-35.1 12.25-35.05 12.6-35L12.6-35 21.55-0.75Q21.65-0.35 21.33-0.13 21 0.1 19.8 0.1L19.8 0.1Q19.35 0.1 18.78 0.08 18.2 0.05 17.4 0L17.4 0 12.7-19.7Q12.3-21.4 11.95-23.15 11.6-24.9 11.33-26.53 11.05-28.15 10.95-29.35L10.95-29.35Q10.85-28.15 10.58-26.53 10.3-24.9 9.95-23.15 9.6-21.4 9.15-19.7L9.15-19.7 4.7-0.7Q4.6-0.3 4.3-0.1 4 0.1 2.8 0.1ZM17.35-8.9L5.4-8.9 5.4-12.6 17.35-12.6 17.35-8.9ZM30.1 0L23.85 0 23.85-34.05Q23.85-34.5 24.12-34.75 24.4-35 25.2-35L25.2-35 30.05-35Q32.5-35 34.35-34.25 36.2-33.5 37.4-31.73 38.6-29.95 39.22-26.9 39.85-23.85 39.85-19.3L39.85-19.3Q39.85-13.8 39.2-10.08 38.55-6.35 37.27-4.15 36-1.95 34.2-0.98 32.4 0 30.1 0L30.1 0ZM27.9-31.25L27.9-3.85 30.15-3.85Q31.15-3.85 32.05-4.4 32.95-4.95 33.67-6.58 34.4-8.2 34.82-11.35 35.25-14.5 35.25-19.7L35.25-19.7Q35.25-23.15 34.92-25.4 34.6-27.65 33.97-28.95 33.35-30.25 32.4-30.75 31.45-31.25 30.2-31.25L30.2-31.25 27.9-31.25ZM49.45 0L43.2 0 43.2-34.05Q43.2-34.5 43.47-34.75 43.75-35 44.55-35L44.55-35 49.4-35Q51.85-35 53.7-34.25 55.55-33.5 56.75-31.73 57.95-29.95 58.57-26.9 59.2-23.85 59.2-19.3L59.2-19.3Q59.2-13.8 58.55-10.08 57.9-6.35 56.62-4.15 55.35-1.95 53.55-0.98 51.75 0 49.45 0L49.45 0ZM47.25-31.25L47.25-3.85 49.5-3.85Q50.5-3.85 51.4-4.4 52.3-4.95 53.02-6.58 53.75-8.2 54.17-11.35 54.6-14.5 54.6-19.7L54.6-19.7Q54.6-23.15 54.27-25.4 53.95-27.65 53.32-28.95 52.7-30.25 51.75-30.75 50.8-31.25 49.55-31.25L49.55-31.25 47.25-31.25ZM71.59-12.3L62.19-12.3Q62.19-14.25 62.29-15.05 62.39-15.85 63.04-15.85L63.04-15.85 72.39-15.85Q72.39-14 72.29-13.15 72.19-12.3 71.59-12.3L71.59-12.3ZM84.79 0.5L84.79 0.5Q82.34 0.5 80.62-0.33 78.89-1.15 77.82-3.2 76.74-5.25 76.24-8.78 75.74-12.3 75.74-17.7L75.74-17.7Q75.74-24.35 76.79-28.25 77.84-32.15 79.97-33.83 82.09-35.5 85.34-35.5L85.34-35.5Q87.74-35.5 89.44-34.63 91.14-33.75 92.19-31.73 93.24-29.7 93.72-26.33 94.19-22.95 94.19-17.85L94.19-17.85Q94.19-10.95 93.22-6.95 92.24-2.95 90.17-1.23 88.09 0.5 84.79 0.5ZM84.94-3.7L84.94-3.7Q86.79-3.7 87.82-5.08 88.84-6.45 89.32-9.58 89.79-12.7 89.79-17.75L89.79-17.75Q89.79-22.75 89.39-25.73 88.99-28.7 88.02-30 87.04-31.3 85.24-31.3L85.24-31.3Q83.49-31.3 82.39-29.9 81.29-28.5 80.79-25.3 80.29-22.1 80.29-16.7L80.29-16.7Q80.29-12.05 80.72-9.2 81.14-6.35 82.17-5.03 83.19-3.7 84.94-3.7ZM114.89 0L111.89 0 106.14-13.75Q105.84-14.55 105.31-16.03 104.79-17.5 104.19-19.35 103.59-21.2 102.96-23.08 102.34-24.95 101.81-26.55 101.29-28.15 100.99-29.13 100.69-30.1 100.69-30.1L100.69-30.1 98.39-32.6 98.69-35 101.79-35 107.39-21.5Q107.74-20.65 108.26-19.13 108.79-17.6 109.39-15.78 109.99-13.95 110.59-12.13 111.19-10.3 111.69-8.75 112.19-7.2 112.51-6.28 112.84-5.35 112.84-5.35L112.84-5.35 115.29-2.4 114.89 0ZM97.84 0L97.84 0 97.84-34.2Q97.84-35 98.69-35L98.69-35 101.89-34.2 101.34-28.35Q101.44-27.65 101.51-26.4 101.59-25.15 101.64-23.63 101.69-22.1 101.74-20.45 101.79-18.8 101.84-17.3 101.89-15.8 101.89-14.65 101.89-13.5 101.89-12.95L101.89-12.95 101.89-0.8Q101.89-0.4 101.71-0.25 101.54-0.1 100.71-0.05 99.89 0 97.84 0ZM114.89 0L114.89 0 111.69-0.8 112.14-7.5Q112.04-8.25 111.99-9.47 111.94-10.7 111.89-12.18 111.84-13.65 111.79-15.2 111.74-16.75 111.71-18.18 111.69-19.6 111.69-20.7 111.69-21.8 111.69-22.4L111.69-22.4 111.69-34.2Q111.69-34.6 111.86-34.75 112.04-34.9 112.89-34.95 113.74-35 115.74-35L115.74-35 115.74-0.8Q115.74 0 114.89 0ZM129.14-12.3L119.74-12.3Q119.74-14.25 119.84-15.05 119.94-15.85 120.59-15.85L120.59-15.85 129.94-15.85Q129.94-14 129.84-13.15 129.74-12.3 129.14-12.3L129.14-12.3ZM137.28 0L133.98 0 133.98-34.2Q133.98-34.2 134.11-34.6 134.23-35 134.83-35L134.83-35 146.83-35Q146.83-33.35 146.78-32.63 146.73-31.9 146.58-31.7 146.43-31.5 146.08-31.5L146.08-31.5 138.03-31.5 138.03-0.8Q138.03-0.8 137.98-0.4 137.93 0 137.28 0L137.28 0ZM144.83-17.2L134.53-17.2 134.53-20.9 145.58-20.9Q145.58-18.6 145.48-17.9 145.38-17.2 144.83-17.2L144.83-17.2ZM146.88 0.1L146.88 0.1Q146.48 0.1 145.78 0.05 145.08 0 144.33-0.05L144.33-0.05 153.23-34.45Q153.38-35.15 154.78-35.15L154.78-35.15Q155.28-35.15 155.81-35.1 156.33-35.05 156.68-35L156.68-35 165.63-0.75Q165.73-0.35 165.41-0.13 165.08 0.1 163.88 0.1L163.88 0.1Q163.43 0.1 162.86 0.08 162.28 0.05 161.48 0L161.48 0 156.78-19.7Q156.38-21.4 156.03-23.15 155.68-24.9 155.41-26.53 155.13-28.15 155.03-29.35L155.03-29.35Q154.93-28.15 154.66-26.53 154.38-24.9 154.03-23.15 153.68-21.4 153.23-19.7L153.23-19.7 148.78-0.7Q148.68-0.3 148.38-0.1 148.08 0.1 146.88 0.1ZM161.43-8.9L149.48-8.9 149.48-12.6 161.43-12.6 161.43-8.9ZM173.48 0.5L173.48 0.5Q170.03 0.5 168.45-0.48 166.88-1.45 166.88-2.5L166.88-2.5Q166.88-3.1 167.13-3.93 167.38-4.75 167.93-5.4L167.93-5.4Q168.73-4.65 170-4.15 171.28-3.65 173.08-3.65L173.08-3.65Q175.73-3.65 176.85-5.05 177.98-6.45 177.98-8.75L177.98-8.75Q177.98-10.45 177.35-11.9 176.73-13.35 175.08-15.25L175.08-15.25 170.08-21.1Q168.38-23.2 167.65-24.88 166.93-26.55 166.93-28.35L166.93-28.35Q166.93-31.5 169.15-33.5 171.38-35.5 175.53-35.5L175.53-35.5Q179.08-35.5 180.58-34.77 182.08-34.05 182.08-33L182.08-33Q182.08-32.5 181.83-31.88 181.58-31.25 181.08-30.7L181.08-30.7Q180.58-31.05 179.25-31.48 177.93-31.9 176.18-31.9L176.18-31.9Q173.93-31.9 172.6-31 171.28-30.1 171.28-28.45L171.28-28.45Q171.28-27.1 171.9-25.98 172.53-24.85 173.63-23.5L173.63-23.5 179.03-17.35Q180.98-15.05 181.68-13.15 182.38-11.25 182.38-8.9L182.38-8.9Q182.38-6.4 181.55-4.25 180.73-2.1 178.8-0.8 176.88 0.5 173.48 0.5ZM197.72 0L197.72 0 197.72-34.2Q197.72-34.6 197.9-34.75 198.08-34.9 198.9-34.95 199.72-35 201.78-35L201.78-35 201.78-0.8Q201.78-0.4 201.63-0.25 201.47-0.1 200.63-0.05 199.78 0 197.72 0ZM185.72 0L185.72 0 185.72-34.2Q185.72-34.6 185.88-34.75 186.03-34.9 186.88-34.95 187.72-35 189.78-35L189.78-35 189.78-0.8Q189.78-0.4 189.63-0.25 189.47-0.1 188.63-0.05 187.78 0 185.72 0ZM199.58-16.95L187.72-16.95 187.72-20.75 199.58-20.75 199.58-16.95ZM206.12 0L206.12 0 206.12-33.15Q206.12-34.1 206.32-34.48 206.52-34.85 207.4-34.93 208.27-35 210.27-35L210.27-35 210.27-0.8Q210.27-0.4 210.07-0.25 209.87-0.1 209.05-0.05 208.22 0 206.12 0ZM222.97 0.5L222.97 0.5Q220.52 0.5 218.8-0.33 217.07-1.15 216-3.2 214.92-5.25 214.42-8.78 213.92-12.3 213.92-17.7L213.92-17.7Q213.92-24.35 214.97-28.25 216.02-32.15 218.15-33.83 220.27-35.5 223.52-35.5L223.52-35.5Q225.92-35.5 227.62-34.63 229.32-33.75 230.37-31.73 231.42-29.7 231.9-26.33 232.37-22.95 232.37-17.85L232.37-17.85Q232.37-10.95 231.4-6.95 230.42-2.95 228.35-1.23 226.27 0.5 222.97 0.5ZM223.12-3.7L223.12-3.7Q224.97-3.7 226-5.08 227.02-6.45 227.5-9.58 227.97-12.7 227.97-17.75L227.97-17.75Q227.97-22.75 227.57-25.73 227.17-28.7 226.2-30 225.22-31.3 223.42-31.3L223.42-31.3Q221.67-31.3 220.57-29.9 219.47-28.5 218.97-25.3 218.47-22.1 218.47-16.7L218.47-16.7Q218.47-12.05 218.9-9.2 219.32-6.35 220.35-5.03 221.37-3.7 223.12-3.7ZM253.07 0L250.07 0 244.32-13.75Q244.02-14.55 243.49-16.03 242.97-17.5 242.37-19.35 241.77-21.2 241.14-23.08 240.52-24.95 239.99-26.55 239.47-28.15 239.17-29.13 238.87-30.1 238.87-30.1L238.87-30.1 236.57-32.6 236.87-35 239.97-35 245.57-21.5Q245.92-20.65 246.44-19.13 246.97-17.6 247.57-15.78 248.17-13.95 248.77-12.13 249.37-10.3 249.87-8.75 250.37-7.2 250.69-6.28 251.02-5.35 251.02-5.35L251.02-5.35 253.47-2.4 253.07 0ZM236.02 0L236.02 0 236.02-34.2Q236.02-35 236.87-35L236.87-35 240.07-34.2 239.52-28.35Q239.62-27.65 239.69-26.4 239.77-25.15 239.82-23.63 239.87-22.1 239.92-20.45 239.97-18.8 240.02-17.3 240.07-15.8 240.07-14.65 240.07-13.5 240.07-12.95L240.07-12.95 240.07-0.8Q240.07-0.4 239.89-0.25 239.72-0.1 238.89-0.05 238.07 0 236.02 0ZM253.07 0L253.07 0 249.87-0.8 250.32-7.5Q250.22-8.25 250.17-9.47 250.12-10.7 250.07-12.18 250.02-13.65 249.97-15.2 249.92-16.75 249.89-18.18 249.87-19.6 249.87-20.7 249.87-21.8 249.87-22.4L249.87-22.4 249.87-34.2Q249.87-34.6 250.04-34.75 250.22-34.9 251.07-34.95 251.92-35 253.92-35L253.92-35 253.92-0.8Q253.92 0 253.07 0Z" opacity="1" transform="matrix(1,0,0,1,0,0)" fill="#171717" class="undefined-text-0" data-fill-palette-color="quaternary" id="text-0"></path></svg></g></svg></g></svg></g></svg></g><g transform="matrix(1,0,0,1,87.26622088754274,0)"><svg viewBox="0 0 38.625999452071625 31.351178856721088" height="31.351178856721088" width="38.625999452071625"><g><svg xmlns="http://www.w3.org/2000/svg" viewBox="0 0 100 81.16600036621094" xml:space="preserve" width="38.625999452071625" height="31.351178856721088" x="0" y="0" class="icon-icon-0" data-fill-palette-color="quaternary" id="icon-0"><path d="M87.043 0H12.957L0 23.557l50 57.609 50-57.609L87.043 0z m-3.408 6.345l7.59 13.801h-13.64l6.05-13.801z m-6.467-0.302l-5.537 12.636L57.792 6.043h19.376zM64.273 20.146H35.727L50 7.113l14.273 13.033zM42.208 6.043L28.37 18.679 22.832 6.043h19.376z m-25.843 0.302l6.05 13.801H8.775l7.59-13.801z m-6.077 19.844h14.776l15.078 34.399-29.854-34.399z m21.375 0h36.675L50 68.022 31.663 26.189z m28.194 34.4L74.935 26.19h14.777L59.857 60.589z" fill="#171717" data-fill-palette-color="quaternary"></path></svg></g></svg></g><g></g></svg></g></svg></g></svg></g></svg></g></svg><rect width="342.85155851775386" height="342.85155851775386" fill="none" stroke="none" visibility="hidden"></rect></g></svg></g></svg>